<svg width="508" height="331" viewBox="0 0 508 331" fill="none" xmlns="http://www.w3.org/2000/svg">
<g filter="url(#filter0_d_376_1965)">
<path d="M415.067 162.114C415.067 162.114 439.53 164.521 451.922 179.588C451.922 179.588 465.03 162.135 488.554 162.496C494.303 155.606 497.964 147.236 499.11 138.36C500.256 129.484 498.84 120.467 495.027 112.359C491.215 104.252 485.162 97.3864 477.574 92.5633C469.986 87.7402 461.175 85.1575 452.166 85.1159C443.158 85.0743 434.323 87.5755 426.69 92.3284C419.057 97.0813 412.941 103.89 409.052 111.962C405.164 120.035 403.664 129.038 404.727 137.924C405.79 146.811 409.372 155.214 415.056 162.156L415.067 162.114Z" fill="#8BAA36"/>
<path opacity="0.5" d="M415.067 162.114C415.067 162.114 439.53 164.521 451.922 179.588C451.922 179.588 465.03 162.135 488.554 162.496C494.303 155.606 497.964 147.236 499.11 138.36C500.256 129.484 498.84 120.467 495.027 112.359C491.215 104.252 485.162 97.3864 477.574 92.5633C469.986 87.7402 461.175 85.1575 452.166 85.1159C443.158 85.0743 434.323 87.5755 426.69 92.3284C419.057 97.0813 412.941 103.89 409.052 111.962C405.164 120.035 403.664 129.038 404.727 137.924C405.79 146.811 409.372 155.214 415.056 162.156L415.067 162.114Z" fill="#FAFAFA"/>
<path d="M451.105 88.4452L450.283 245.94H454.414L451.105 88.4452Z" fill="#B8B8B8"/>
<path d="M452.347 174.996C452.347 174.996 460.598 160.226 475.466 155.71C475.466 155.71 459.776 159.41 451.984 172.123L452.347 174.996Z" fill="#B8B8B8"/>
<path d="M452.347 133.157C452.347 133.157 460.598 118.387 475.466 113.87C475.466 113.87 459.776 117.56 451.984 130.283L452.347 133.157Z" fill="#B8B8B8"/>
<path d="M452.347 154.055C452.347 154.055 460.598 139.285 475.466 134.768C475.466 134.768 459.776 138.469 451.984 151.182L452.347 154.055Z" fill="#B8B8B8"/>
<path d="M451.119 143.813C451.119 143.813 443.146 129.054 428.801 124.537C428.801 124.537 443.947 128.227 451.514 140.951L451.119 143.813Z" fill="#B8B8B8"/>
<path d="M451.119 164.33C451.119 164.33 443.146 149.56 428.801 145.054C428.801 145.054 443.947 148.743 451.514 161.456L451.119 164.33Z" fill="#B8B8B8"/>
<path d="M14.6721 162.114C14.6721 162.114 39.1359 164.521 51.528 179.588C51.528 179.588 64.6351 162.136 88.1596 162.496C93.9086 155.607 97.5692 147.236 98.7152 138.36C99.8612 129.484 98.4454 120.468 94.6327 112.36C90.82 104.252 84.7673 97.3869 77.1793 92.5637C69.5912 87.7406 60.7801 85.1579 51.7717 85.1163C42.7634 85.0747 33.9284 87.576 26.2956 92.3288C18.6628 97.0817 12.5461 103.891 8.65772 111.963C4.76935 120.035 3.26928 129.038 4.33217 137.925C5.39506 146.811 8.97718 155.215 14.6615 162.157L14.6721 162.114Z" fill="#8BAA36"/>
<path opacity="0.5" d="M14.6721 162.114C14.6721 162.114 39.1359 164.521 51.528 179.588C51.528 179.588 64.6351 162.136 88.1596 162.496C93.9086 155.607 97.5692 147.236 98.7152 138.36C99.8612 129.484 98.4454 120.468 94.6327 112.36C90.82 104.252 84.7673 97.3869 77.1793 92.5637C69.5912 87.7406 60.7801 85.1579 51.7717 85.1163C42.7634 85.0747 33.9284 87.576 26.2956 92.3288C18.6628 97.0817 12.5461 103.891 8.65772 111.963C4.76935 120.035 3.26928 129.038 4.33217 137.925C5.39506 146.811 8.97718 155.215 14.6615 162.157L14.6721 162.114Z" fill="#FAFAFA"/>
<path d="M50.7212 88.4456L49.8887 245.94H54.0193L50.7212 88.4456Z" fill="#B8B8B8"/>
<path d="M51.9723 174.997C51.9723 174.997 60.2229 160.227 75.0912 155.711C75.0912 155.711 59.4011 159.411 51.6094 172.124L51.9723 174.997Z" fill="#B8B8B8"/>
<path d="M51.9723 133.158C51.9723 133.158 60.2229 118.388 75.0912 113.871C75.0912 113.871 59.4011 117.561 51.6094 130.284L51.9723 133.158Z" fill="#B8B8B8"/>
<path d="M51.9723 154.056C51.9723 154.056 60.2229 139.286 75.0912 134.769C75.0912 134.769 59.4011 138.47 51.6094 151.183L51.9723 154.056Z" fill="#B8B8B8"/>
<path d="M50.7305 143.814C50.7305 143.814 42.7574 129.055 28.4121 124.538C28.4121 124.538 43.5579 128.228 51.1255 140.951L50.7305 143.814Z" fill="#B8B8B8"/>
<path d="M50.7305 164.33C50.7305 164.33 42.7574 149.561 28.4121 145.054C28.4121 145.054 43.5579 148.744 51.1255 161.457L50.7305 164.33Z" fill="#B8B8B8"/>
<path d="M315.67 177.382C315.67 177.382 335.693 179.344 345.833 191.675C345.833 191.675 356.56 177.393 375.815 177.679C380.518 172.04 383.512 165.189 384.448 157.925C385.383 150.661 384.223 143.282 381.101 136.647C377.979 130.013 373.024 124.396 366.813 120.45C360.603 116.505 353.391 114.393 346.019 114.36C338.647 114.328 331.417 116.376 325.171 120.267C318.926 124.158 313.921 129.731 310.74 136.337C307.559 142.944 306.332 150.312 307.203 157.584C308.074 164.857 311.006 171.733 315.659 177.414L315.67 177.382Z" fill="#8BAA36"/>
<path opacity="0.5" d="M315.67 177.382C315.67 177.382 335.693 179.344 345.833 191.675C345.833 191.675 356.56 177.393 375.815 177.679C380.518 172.04 383.512 165.189 384.448 157.925C385.383 150.661 384.223 143.282 381.101 136.647C377.979 130.013 373.024 124.396 366.813 120.45C360.603 116.505 353.391 114.393 346.019 114.36C338.647 114.328 331.417 116.376 325.171 120.267C318.926 124.158 313.921 129.731 310.74 136.337C307.559 142.944 306.332 150.312 307.203 157.584C308.074 164.857 311.006 171.733 315.659 177.414L315.67 177.382Z" fill="#FAFAFA"/>
<path d="M345.164 117.03L344.491 245.94H347.875L345.164 117.03Z" fill="#B8B8B8"/>
<path d="M346.184 187.878C346.184 187.878 352.951 175.791 365.108 172.091C365.108 172.091 352.3 175.112 345.896 185.524L346.184 187.878Z" fill="#B8B8B8"/>
<path d="M346.184 153.632C346.184 153.632 352.951 141.544 365.108 137.855C365.108 137.855 352.3 140.876 345.896 151.278L346.184 153.632Z" fill="#B8B8B8"/>
<path d="M346.184 170.755C346.184 170.755 352.951 158.667 365.108 154.967C365.108 154.967 352.3 157.989 345.896 168.401L346.184 170.755Z" fill="#B8B8B8"/>
<path d="M345.181 162.358C345.181 162.358 338.66 150.271 326.919 146.581C326.919 146.581 339.311 149.603 345.512 160.004L345.181 162.358Z" fill="#B8B8B8"/>
<path d="M345.181 179.142C345.181 179.142 338.66 167.054 326.919 163.365C326.919 163.365 339.311 166.386 345.512 176.798L345.181 179.142Z" fill="#B8B8B8"/>
<path d="M121.934 177.383C121.934 177.383 141.958 179.344 152.098 191.675C152.098 191.675 162.771 177.393 182.08 177.68C186.783 172.04 189.776 165.189 190.712 157.925C191.648 150.661 190.487 143.282 187.365 136.648C184.243 130.013 179.289 124.396 173.078 120.451C166.867 116.505 159.656 114.393 152.284 114.36C144.912 114.328 137.682 116.376 131.436 120.267C125.19 124.158 120.186 129.731 117.004 136.338C113.823 142.944 112.597 150.312 113.468 157.585C114.339 164.857 117.271 171.734 121.924 177.414L121.934 177.383Z" fill="#8BAA36"/>
<path opacity="0.5" d="M121.934 177.383C121.934 177.383 141.958 179.344 152.098 191.675C152.098 191.675 162.771 177.393 182.08 177.68C186.783 172.04 189.776 165.189 190.712 157.925C191.648 150.661 190.487 143.282 187.365 136.648C184.243 130.013 179.289 124.396 173.078 120.451C166.867 116.505 159.656 114.393 152.284 114.36C144.912 114.328 137.682 116.376 131.436 120.267C125.19 124.158 120.186 129.731 117.004 136.338C113.823 142.944 112.597 150.312 113.468 157.585C114.339 164.857 117.271 171.734 121.924 177.414L121.934 177.383Z" fill="#FAFAFA"/>
<path d="M151.438 117.031L150.766 245.941H154.149L151.438 117.031Z" fill="#B8B8B8"/>
<path d="M152.507 187.879C152.507 187.879 159.274 175.792 171.431 172.091C171.431 172.091 158.623 175.113 152.219 185.525L152.507 187.879Z" fill="#B8B8B8"/>
<path d="M152.507 153.632C152.507 153.632 159.274 141.545 171.431 137.855C171.431 137.855 158.623 140.877 152.219 151.278L152.507 153.632Z" fill="#B8B8B8"/>
<path d="M152.507 170.755C152.507 170.755 159.274 158.668 171.431 154.967C171.431 154.967 158.623 157.989 152.219 168.401L152.507 170.755Z" fill="#B8B8B8"/>
<path d="M151.438 162.358C151.438 162.358 144.927 150.271 133.187 146.634C133.187 146.634 145.579 149.656 151.78 160.057L151.438 162.358Z" fill="#B8B8B8"/>
<path d="M151.437 179.142C151.437 179.142 144.916 167.055 133.175 163.365C133.175 163.365 145.567 166.387 151.768 176.799L151.437 179.142Z" fill="#B8B8B8"/>
<path d="M22.0332 246.502H482.64" stroke="#22252A" stroke-width="1.04742" stroke-miterlimit="10"/>
<path opacity="0.3" d="M147.798 297.67C147.798 300.851 128.127 303.385 103.844 303.385C79.562 303.385 59.8906 300.83 59.8906 297.67C59.8906 294.51 79.5727 291.955 103.844 291.955C128.116 291.955 147.798 294.521 147.798 297.67Z" fill="black"/>
<path opacity="0.3" d="M239.814 297.67C239.814 300.851 220.132 303.385 195.86 303.385C171.588 303.385 151.906 300.829 151.906 297.67C151.906 294.51 171.588 291.955 195.86 291.955C220.132 291.955 239.814 294.521 239.814 297.67Z" fill="black"/>
<path opacity="0.3" d="M361.711 297.67C361.711 300.851 342.04 303.385 317.768 303.385C293.496 303.385 273.814 300.83 273.814 297.67C273.814 294.51 293.486 291.955 317.768 291.955C342.051 291.955 361.711 294.521 361.711 297.67Z" fill="black"/>
<path opacity="0.3" d="M463.532 297.67C463.532 300.851 443.85 303.385 419.578 303.385C395.307 303.385 375.582 300.83 375.582 297.67C375.582 294.51 395.264 291.955 419.536 291.955C443.807 291.955 463.532 294.521 463.532 297.67Z" fill="black"/>
<path d="M322.517 130.486C322.517 130.486 320.713 137.908 320.713 139.159C320.712 139.933 320.626 140.705 320.457 141.46C320.457 141.46 316.604 146.051 317.116 147.323C317.739 148.313 318.631 149.107 319.689 149.614C319.689 149.614 321.738 157.036 323.798 157.523C325.914 157.916 328.053 158.171 330.202 158.287L330.971 164.405L341.239 162.878L338.677 153.696L339.744 145.786C339.744 145.786 341.537 142.478 339.744 137.123C337.951 131.769 334.098 131.515 331.526 131.515C328.507 131.325 325.5 130.981 322.517 130.486Z" fill="#FAFAFA" stroke="#22252A" stroke-width="1.04742" stroke-linecap="round" stroke-linejoin="round"/>
<path d="M327.129 126.668C327.129 126.668 318.142 126.403 318.398 128.704C318.654 131.005 327.897 134.006 327.897 134.006C327.897 134.006 324.813 136.041 326.35 138.088C327.887 140.134 331.484 141.915 331.484 141.915C331.484 141.915 330.416 146.252 332.007 146.506C333.597 146.761 334.568 144.46 334.825 143.697C335.081 142.933 337.909 143.188 338.678 145.223C339.112 146.281 339.372 147.402 339.446 148.542C339.446 148.542 342.531 139.36 343.043 135.278C343.556 131.196 332.007 126.668 327.129 126.668Z" fill="#22252A" stroke="#22252A" stroke-width="1.04742" stroke-linecap="round" stroke-linejoin="round"/>
<path d="M332.823 146.634C332.823 146.634 335.929 139.848 337.786 143.188C339.644 146.527 338.854 150.005 337.029 150.376C335.203 150.747 333.677 151.108 333.677 151.108" fill="#FAFAFA"/>
<path d="M332.823 146.634C332.823 146.634 335.929 139.848 337.786 143.188C339.644 146.527 338.854 150.005 337.029 150.376C335.203 150.747 333.677 151.108 333.677 151.108" stroke="#22252A" stroke-width="1.04742" stroke-linecap="round" stroke-linejoin="round"/>
<path d="M320.201 217.45C319.699 218.033 311.47 235.56 310.445 241.423C309.42 247.287 302.749 282.234 302.482 283.76C302.216 285.287 288.116 288.351 287.081 288.606C286.045 288.86 288.148 291.67 291.19 292.433C294.232 293.197 303.005 296.77 305.065 294.724C307.125 292.677 309.943 281.205 310.712 279.933C311.48 278.66 325.932 244.837 325.932 244.837C325.932 244.837 333.34 228.604 334.877 227.067C336.414 225.529 333.052 218.733 331.76 216.687C330.469 214.64 323.798 213.368 320.201 217.45Z" fill="#22252A" stroke="#22252A" stroke-width="1.04742" stroke-linecap="round" stroke-linejoin="round"/>
<path d="M318.662 217.672C318.662 217.672 322.259 234.764 324.052 240.882C325.731 246.02 328.255 250.846 331.524 255.164C333.584 257.974 343.596 282.731 343.596 282.731L345.133 286.559C345.133 286.559 344.62 288.086 341.802 290.121C338.985 292.157 331.011 295.476 333.071 296.25C335.131 297.024 343.339 297.013 347.193 296.759C350.51 296.525 353.62 295.069 355.913 292.677C357.461 290.885 353.351 285.785 353.351 284.767C353.351 283.749 344.364 252.64 343.852 251.103C343.339 249.566 340.767 238.613 340.767 238.613V226.154C340.767 226.154 342.059 223.864 342.059 218.732C342.059 213.601 338.205 212.604 338.205 212.604L317.146 214.65L318.662 217.672Z" fill="#22252A" stroke="#22252A" stroke-width="1.04742" stroke-linecap="round" stroke-linejoin="round"/>
<path d="M316.875 216.177C316.875 216.177 317.398 220.514 318.935 220.768C320.472 221.023 336.386 225.359 343.324 220.259C343.324 220.259 344.605 216.432 343.836 215.414C343.068 214.396 341.264 214.905 332.031 214.905C322.799 214.905 316.875 214.905 316.875 216.177Z" fill="#8BAA36" stroke="#22252A" stroke-width="1.04742" stroke-linecap="round" stroke-linejoin="round"/>
<path d="M340.475 159.05C340.475 159.05 330.975 160.322 326.866 164.351C322.757 168.38 319.17 175.834 317.377 182.715C315.584 189.596 314.292 214.852 316.854 216.125C319.416 217.397 340.987 218.68 344.605 217.185C348.224 215.69 344.349 203.666 344.349 199.075C344.349 194.484 348.458 178.93 347.69 170.267C346.921 161.605 340.475 159.05 340.475 159.05Z" fill="#8BAA36" stroke="#22252A" stroke-width="1.04742" stroke-linecap="round" stroke-linejoin="round"/>
<path d="M306.198 185.557C306.08 175.06 301.768 166.101 296.036 162.231V160.11L280.24 160.269C271.348 160.364 264.229 171.932 264.411 186.034C264.592 200.136 271.882 211.555 280.784 211.481L296.581 211.322V209.201C302.131 205.098 306.251 196.054 306.198 185.557Z" fill="#22252A" stroke="#22252A" stroke-width="1.04742" stroke-linecap="round" stroke-linejoin="round"/>
<path d="M313.285 185.482C313.168 174.455 308.888 165.04 302.868 160.947V158.689L296.101 158.763C286.751 158.859 279.311 170.978 279.471 185.832C279.631 200.687 287.327 212.647 296.677 212.551L303.444 212.477V210.229C309.325 206.009 313.403 196.467 313.285 185.482Z" fill="#FAFAFA" stroke="#22252A" stroke-width="1.04742" stroke-linecap="round" stroke-linejoin="round"/>
<path d="M320.074 185.408C320.234 200.252 312.784 212.382 303.445 212.477C294.105 212.573 286.367 200.613 286.239 185.769C286.111 170.925 293.529 158.795 302.868 158.689C312.208 158.583 319.893 170.554 320.074 185.408Z" fill="#737373" stroke="#22252A" stroke-width="1.04742" stroke-linecap="round" stroke-linejoin="round"/>
<path d="M316.196 184.952C316.271 191.982 312.738 197.729 308.308 197.782C303.879 197.835 300.228 192.151 300.154 185.058C300.079 177.965 303.612 172.335 308.041 172.229C312.471 172.123 316.121 177.912 316.196 184.952Z" fill="#22252A" stroke="#22252A" stroke-width="1.04742" stroke-linecap="round" stroke-linejoin="round"/>
<path d="M441.973 237.818C442.854 231.282 443.228 224.689 443.093 218.096C439.624 219.687 419.387 220.27 417.53 220.312C415.673 220.355 395.436 219.687 391.967 218.096C391.814 224.688 392.171 231.281 393.034 237.818C394.433 246.417 406.729 280.844 407.006 282.509C407.366 284.114 407.833 285.694 408.404 287.238C408.404 287.238 401.413 292.232 398.339 294.172C395.265 296.112 397.507 296.95 400.581 296.95C403.655 296.95 410.08 296.112 412.033 296.112C413.762 296.112 416.772 294.617 417.477 294.257C418.181 294.617 421.191 296.112 422.91 296.112C424.874 296.112 431.299 296.95 434.373 296.95C437.447 296.95 439.71 296.112 436.614 294.172C433.519 292.232 426.549 287.238 426.549 287.238C427.121 285.694 427.588 284.114 427.948 282.509C428.278 280.812 440.574 246.385 441.973 237.818Z" fill="#22252A" stroke="#22252A" stroke-width="1.04742" stroke-linecap="round" stroke-linejoin="round"/>
<path d="M413.301 164.117C413.301 164.117 402.489 167.627 396.907 171.147C391.324 174.667 385.721 193.731 385.721 194.473C385.4 195.801 384.964 197.1 384.418 198.354C384.418 198.354 378.826 197.06 377.715 201.683C376.605 206.306 383.298 212.233 386.841 212.424C390.385 212.614 391.495 211.501 391.495 211.501C391.495 211.501 389.264 215.944 390.193 217.789C391.121 219.633 398.956 226.494 414.422 226.271C429.888 226.048 441.106 223.493 442.739 221.277C444.372 219.061 444.607 214.428 444.607 214.428C444.607 214.428 450.381 212.943 452.43 209.243C454.48 205.542 454.106 201.651 452.985 197.77C451.865 193.89 446.09 182.619 442.184 176.321C438.277 170.023 430.069 166.513 426.173 165.4C422.278 164.287 415.905 164.117 413.301 164.117Z" fill="#8BAA36" stroke="#22252A" stroke-width="1.04742" stroke-linecap="round" stroke-linejoin="round"/>
<path d="M416.578 179.703C418.126 179.194 422.982 174.911 424.85 170.627C425.589 168.987 426.11 167.259 426.398 165.485L426.152 165.411C422.246 164.297 415.906 164.117 413.344 164.117C413.344 164.117 411.081 164.849 408.093 165.983C408.111 168.275 408.545 170.545 409.374 172.684C411.06 176.968 415.073 180.223 416.578 179.703Z" fill="#FAFAFA" stroke="#22252A" stroke-width="1.04742" stroke-linecap="round" stroke-linejoin="round"/>
<path d="M434.35 188.355C434.35 188.355 438.822 212.053 443.892 214.491" stroke="#22252A" stroke-width="1.04742" stroke-linecap="round" stroke-linejoin="round"/>
<path d="M391.497 211.502C391.497 211.502 397.09 190.582 397.464 188.546" stroke="#22252A" stroke-width="1.04742" stroke-linecap="round" stroke-linejoin="round"/>
<path d="M441.572 199.064C441.572 199.064 438.477 199.753 438.477 201.98" stroke="#22252A" stroke-width="1.04742" stroke-linecap="round" stroke-linejoin="round"/>
<path d="M388.99 199.404C388.99 199.404 392.438 201.63 392.096 205.055" stroke="#22252A" stroke-width="1.04742" stroke-linecap="round" stroke-linejoin="round"/>
<path d="M412.086 296.132C413.816 296.132 416.825 294.637 417.53 294.277C418.234 294.637 421.244 296.132 422.963 296.132C424.927 296.132 431.352 296.97 434.426 296.97C437.5 296.97 439.763 296.132 436.668 294.192C433.989 292.506 428.374 288.519 426.944 287.502C423.646 290.492 417.124 289.749 417.124 289.749C415.803 289.552 414.495 289.275 413.207 288.922C411.254 288.36 408.457 287.258 408.457 287.258C408.457 287.258 401.466 292.252 398.392 294.192C395.318 296.132 397.56 296.97 400.634 296.97C403.708 296.97 410.133 296.132 412.086 296.132Z" fill="#8BAA36" stroke="#22252A" stroke-width="1.04742" stroke-linecap="round" stroke-linejoin="round"/>
<path d="M417.117 287.3V238.888" stroke="#FAFAFA" stroke-width="1.04742" stroke-linecap="round" stroke-linejoin="round"/>
<path d="M417.523 294.223L417.117 289.696V287.3" stroke="#22252A" stroke-width="1.04742" stroke-linecap="round" stroke-linejoin="round"/>
<path d="M413.2 237.223H421.301" stroke="#FAFAFA" stroke-width="1.04742" stroke-linecap="round" stroke-linejoin="round"/>
<path d="M402.614 136.338C402.614 136.338 396.807 139.794 397.672 142.827C398.536 145.859 401.162 146.442 400.586 148.128C400.009 149.814 397.992 150.874 400.287 151.935C401.594 152.516 402.961 152.953 404.364 153.239C404.364 153.239 406.499 160.597 410.171 161.891C413.842 163.184 420.204 162.325 424.708 161.753C426.229 161.605 427.67 161 428.837 160.019C430.003 159.038 430.842 157.727 431.24 156.261C431.678 154.681 429.351 156.557 428.187 154.819C427.024 153.08 428.775 148.616 430.077 144.714C431.379 140.812 427.462 133.454 422.381 131.005C417.3 128.555 407.598 129.838 402.614 136.338Z" fill="#22252A" stroke="#22252A" stroke-width="1.04742" stroke-linecap="round" stroke-linejoin="round"/>
<path d="M412.375 161.477C411.637 163.897 411.136 166.383 410.881 168.899C410.689 172.08 413.304 175.568 416.1 175.378C418.897 175.187 421.309 169.641 421.683 166.895C422.056 164.149 420.754 156.716 420.754 156.716C420.754 156.716 416.485 156.907 414.788 158.381C413.791 159.25 412.972 160.301 412.375 161.477Z" fill="#FAFAFA" stroke="#22252A" stroke-width="1.04742" stroke-linecap="round" stroke-linejoin="round"/>
<path d="M408.584 140.378C408.584 140.378 408.722 144.704 413.088 148.86C415.712 151.381 418.824 153.347 422.235 154.639C422.159 155.586 421.913 156.512 421.509 157.374C421.32 157.734 421.024 158.029 420.662 158.218C420.299 158.407 419.888 158.483 419.481 158.434H418.019C418.019 158.434 415.884 163.407 413.301 164.128C410.718 164.849 404.368 164.351 403.492 158C402.617 151.649 402.478 146.453 403.204 145.149C403.93 143.845 408.584 140.378 408.584 140.378Z" fill="#FAFAFA" stroke="#22252A" stroke-width="1.04742" stroke-linecap="round" stroke-linejoin="round"/>
<path d="M454.25 196.254C454.912 194.928 455.314 193.489 455.435 192.013C455.435 190.083 451.827 187.316 451.165 186.627C450.504 185.938 449.842 186.012 449.703 186.977C449.701 187.518 449.811 188.055 450.026 188.552C450.241 189.05 450.556 189.499 450.952 189.871C451.493 190.295 451.885 190.877 452.073 191.536C452.137 192.013 450.877 194.356 451.507 195.872C452.137 197.389 453.909 197.845 454.25 196.254Z" fill="#FAFAFA" stroke="#22252A" stroke-width="1.04742" stroke-linecap="round" stroke-linejoin="round"/>
<path d="M309.706 185.429C309.706 185.429 325.418 190.423 334.864 202.086C344.31 213.749 350.511 212.074 362.252 208.194C373.993 204.313 378.465 190.423 394.678 202.086C410.891 213.749 414.243 218.181 427.66 211.523C441.076 204.864 448.334 188.759 460.641 194.304C472.948 199.849 467.344 228.233 468.465 242.017C469.585 255.8 467.899 290.334 470.695 294.776C473.492 299.219 502.001 295.837 502.001 295.837" stroke="#22252A" stroke-width="3.14226" stroke-linecap="round" stroke-linejoin="round"/>
<path d="M339.133 166.896C339.133 166.896 336.006 161.828 331.395 163.153C326.517 164.553 323.998 171.476 322.856 175.792C321.714 180.107 320.945 184.772 318.853 188.791C318.853 188.791 309.61 188.632 304.455 187.147C300.521 185.929 296.652 184.513 292.863 182.906C292.863 182.906 291.038 180.372 289.746 179.874C288.455 179.375 285.103 178.4 284.858 179.163C284.612 179.927 288.743 182.44 288.743 182.44C288.743 182.44 281.058 183.5 280.29 184.316C279.521 185.133 285.722 187.571 285.722 187.571C285.722 187.571 288.039 188.314 293.674 186.978C293.674 186.978 314.349 200.019 318.469 201.514C322.589 203.009 324.873 203.486 327.68 198.1C330.487 192.714 339.805 179.354 341.289 173.978" fill="#8BAA36"/>
<path d="M339.133 166.896C339.133 166.896 336.006 161.828 331.395 163.153C326.517 164.553 323.998 171.476 322.856 175.792C321.714 180.107 320.945 184.772 318.853 188.791C318.853 188.791 309.61 188.632 304.455 187.147C300.521 185.929 296.652 184.513 292.863 182.906C292.863 182.906 291.038 180.372 289.746 179.874C288.455 179.375 285.103 178.4 284.858 179.163C284.612 179.927 288.743 182.44 288.743 182.44C288.743 182.44 281.058 183.5 280.29 184.316C279.521 185.133 285.722 187.571 285.722 187.571C285.722 187.571 288.039 188.314 293.674 186.978C293.674 186.978 314.349 200.019 318.469 201.514C322.589 203.009 324.873 203.486 327.68 198.1C330.487 192.714 339.805 179.354 341.289 173.978" stroke="#22252A" stroke-width="1.04742" stroke-linecap="round" stroke-linejoin="round"/>
<path d="M298.231 185.069C295.21 183.945 292.894 182.948 292.894 182.948C292.894 182.948 291.069 180.414 289.778 179.916C288.486 179.417 285.135 178.442 284.889 179.205C284.644 179.969 288.774 182.482 288.774 182.482C288.774 182.482 281.089 183.542 280.321 184.358C279.552 185.175 285.754 187.613 285.754 187.613C285.754 187.613 288.07 188.356 293.705 187.02L296.598 188.833L298.231 185.069Z" fill="#FAFAFA" stroke="#22252A" stroke-width="1.04742" stroke-linecap="round" stroke-linejoin="round"/>
<path d="M377.915 198.205C377.253 196.879 376.851 195.44 376.73 193.964C376.73 192.034 380.349 189.278 381 188.588C381.651 187.899 382.313 187.974 382.452 188.938C382.453 189.48 382.344 190.016 382.129 190.514C381.914 191.012 381.599 191.461 381.203 191.833C380.662 192.257 380.27 192.839 380.082 193.498C380.018 193.964 381.277 196.318 380.648 197.834C380.018 199.35 378.257 199.785 377.915 198.205Z" fill="#FAFAFA" stroke="#22252A" stroke-width="1.04742" stroke-linecap="round" stroke-linejoin="round"/>
<path d="M380.403 192.384C380.403 192.384 377.425 197.845 379.154 199.806C380.883 201.768 382.559 195.396 382.879 193.636C383.199 191.875 381.502 190.105 380.403 192.384Z" fill="#FAFAFA" stroke="#22252A" stroke-width="1.04742" stroke-linecap="round" stroke-linejoin="round"/>
<path d="M382.855 194.346C382.855 194.346 379.877 199.806 381.606 201.768C383.335 203.729 385.011 197.357 385.331 195.597C385.652 193.837 383.954 192.003 382.855 194.346Z" fill="#FAFAFA" stroke="#22252A" stroke-width="1.04742" stroke-linecap="round" stroke-linejoin="round"/>
<path d="M385.561 194.802C385.561 194.802 382.583 200.262 384.312 202.224C386.041 204.186 387.717 197.813 388.037 196.053C388.358 194.293 386.66 192.512 385.561 194.802Z" fill="#FAFAFA" stroke="#22252A" stroke-width="1.04742" stroke-linecap="round" stroke-linejoin="round"/>
<path d="M389.017 194.844C389.017 194.844 386.242 199.085 387.757 200.686C389.273 202.287 390.906 197.251 391.226 195.798C391.547 194.345 390.042 192.935 389.017 194.844Z" fill="#FAFAFA" stroke="#22252A" stroke-width="1.04742" stroke-linecap="round" stroke-linejoin="round"/>
<path d="M452.275 192.597C452.275 192.597 455.253 198.058 453.523 200.019C451.794 201.981 450.119 195.598 449.798 193.838C449.478 192.078 451.175 190.307 452.275 192.597Z" fill="#FAFAFA" stroke="#22252A" stroke-width="1.04742" stroke-linecap="round" stroke-linejoin="round"/>
<path d="M449.822 194.505C449.822 194.505 452.8 199.966 451.071 201.927C449.342 203.889 447.666 197.506 447.346 195.746C447.026 193.986 448.723 192.226 449.822 194.505Z" fill="#FAFAFA" stroke="#22252A" stroke-width="1.04742" stroke-linecap="round" stroke-linejoin="round"/>
<path d="M447.096 195.014C447.096 195.014 450.074 200.475 448.345 202.436C446.616 204.398 444.94 198.025 444.631 196.255C444.321 194.484 446.029 192.724 447.096 195.014Z" fill="#FAFAFA" stroke="#22252A" stroke-width="1.04742" stroke-linecap="round" stroke-linejoin="round"/>
<path d="M443.653 195.056C443.653 195.056 446.428 199.35 444.912 200.898C443.396 202.446 441.763 197.463 441.454 196.01C441.144 194.558 442.628 193.148 443.653 195.056Z" fill="#FAFAFA" stroke="#22252A" stroke-width="1.04742" stroke-linecap="round" stroke-linejoin="round"/>
<path d="M76.4321 255.471V261.493C74.3283 263.778 72.8154 266.536 72.0239 269.53C70.7324 274.45 66.6872 295.624 67.7545 296.175C68.8219 296.727 78.8657 299.006 82.0678 298.529C85.7395 297.978 88.8668 298.169 87.0203 296.154C85.1738 294.14 75.4715 288.51 75.4715 288.51C75.4715 288.51 86.1451 273.178 88.5146 267.516C90.8841 261.854 91.2684 253.096 91.2684 253.096L76.9445 252.555L76.4321 255.471Z" fill="#FAFAFA" stroke="#22252A" stroke-width="1.04742" stroke-linecap="round" stroke-linejoin="round"/>
<path d="M82.0685 298.529C85.7402 297.978 88.8676 298.169 87.0211 296.154C85.1745 294.14 75.4723 288.509 75.4723 288.509L75.1094 290.694L68.1182 289.845C67.6058 293.387 67.3817 295.984 67.7553 296.207C68.8973 296.716 78.8665 299.006 82.0685 298.529Z" fill="#22252A" stroke="#22252A" stroke-width="1.04742" stroke-linecap="round" stroke-linejoin="round"/>
<path d="M111.521 258.588L113.175 261.514C112.489 262.828 112.086 264.269 111.99 265.745C111.895 267.222 112.109 268.702 112.62 270.092C114.274 275.203 118.138 294.001 118.138 295.094C118.138 296.186 120.518 296.917 122.408 296.917C124.297 296.917 129.527 297.278 130.263 297.278C131 297.278 136.326 298.19 138.162 297.098C139.998 296.005 135.824 293.811 133.071 292.538C130.317 291.266 124.254 287.979 124.254 287.979C124.254 287.979 125.716 273.008 125.716 266.434C125.716 259.86 127.189 257.676 125.172 253.658C123.155 249.639 110.475 255.492 110.475 255.492L111.521 258.588Z" fill="#FAFAFA" stroke="#22252A" stroke-width="1.04742" stroke-linecap="round" stroke-linejoin="round"/>
<path d="M133.014 292.539C130.26 291.256 124.198 287.979 124.198 287.979L123.461 290.715L117.559 291.775C117.911 293.599 118.135 294.85 118.135 295.104C118.135 296.165 120.515 296.928 122.404 296.928C124.294 296.928 129.524 297.289 130.26 297.289C130.997 297.289 136.323 298.2 138.159 297.108C139.994 296.016 135.768 293.811 133.014 292.539Z" fill="#22252A" stroke="#22252A" stroke-width="1.04742" stroke-linecap="round" stroke-linejoin="round"/>
<path d="M101.622 137.091C100.181 134.646 98.5353 132.326 96.7012 130.157C94.1716 127.326 86.2411 127.485 82.7615 131.217C79.2819 134.949 80.3813 141.608 81.6942 143.495C83.007 145.382 85.6541 154.204 85.6541 154.204L86.2838 160.502L101.024 165.697L98.014 155.466C98.014 155.466 103.724 154.405 104.194 152.635C104.664 150.864 103.244 144.916 103.244 144.916C103.244 144.916 105.144 143.654 104.984 142.551C104.824 141.449 101.622 137.091 101.622 137.091Z" fill="#FAFAFA" stroke="#22252A" stroke-width="1.04742" stroke-linecap="round" stroke-linejoin="round"/>
<path d="M84.6602 143.878C84.6602 143.878 87.1791 145.999 88.556 143.571C89.9329 141.143 90.9789 138.768 90.9789 136.711C90.9789 134.654 85.8022 132.947 89.2498 131.568C92.6973 130.19 95.1843 133.254 96.7213 130.179C98.2583 127.105 96.86 126.776 88.5774 126.776C80.2947 126.776 76.1533 130.89 77.9038 136.032C79.3038 139.83 81.0359 143.498 83.0805 146.996L84.6602 143.878Z" fill="#22252A" stroke="#22252A" stroke-width="1.04742" stroke-linecap="round" stroke-linejoin="round"/>
<path d="M102.083 140.729C102.083 141.507 101.851 142.267 101.416 142.914C100.98 143.561 100.362 144.065 99.6384 144.363C98.9148 144.661 98.1186 144.738 97.3504 144.587C96.5823 144.435 95.8767 144.06 95.3229 143.51C94.7691 142.96 94.392 142.259 94.2392 141.496C94.0864 140.733 94.1648 139.942 94.4645 139.223C94.7642 138.504 95.2718 137.89 95.923 137.458C96.5742 137.026 97.3398 136.795 98.123 136.795C99.1732 136.795 100.18 137.209 100.923 137.947C101.666 138.685 102.083 139.685 102.083 140.729Z" stroke="#22252A" stroke-width="1.04742" stroke-linecap="round" stroke-linejoin="round"/>
<path d="M101.523 137.24C101.984 137.053 102.477 136.955 102.975 136.954C103.8 136.955 104.6 137.229 105.252 137.731C105.903 138.233 106.369 138.935 106.575 139.728C106.781 140.521 106.717 141.36 106.392 142.113C106.067 142.866 105.499 143.49 104.779 143.888" stroke="#22252A" stroke-width="1.04742" stroke-linecap="round" stroke-linejoin="round"/>
<path d="M94.1762 140.729L84.666 143.878" stroke="#22252A" stroke-width="1.04742" stroke-linecap="round" stroke-linejoin="round"/>
<path d="M87.4028 145.923C87.4028 145.923 85.5029 141.99 83.603 142.743C81.7031 143.495 82.653 149.677 84.5529 150.302C85.1914 150.445 85.855 150.434 86.4882 150.27C87.1214 150.106 87.7058 149.793 88.1926 149.359C88.1926 149.359 89.783 152.667 91.6829 153.6" fill="#FAFAFA"/>
<path d="M87.4028 145.923C87.4028 145.923 85.5029 141.99 83.603 142.743C81.7031 143.495 82.653 149.677 84.5529 150.302C85.1914 150.445 85.855 150.434 86.4882 150.27C87.1214 150.106 87.7058 149.793 88.1926 149.359C88.1926 149.359 89.783 152.667 91.6829 153.6" stroke="#22252A" stroke-width="1.04742" stroke-linecap="round" stroke-linejoin="round"/>
<path d="M74.9266 216.613L73.7419 231.69L70.1982 254.009C70.1982 254.009 78.4809 260.466 86.2086 260.466C93.9363 260.466 96.0603 259.491 96.0603 259.491L100.394 236.589L104.727 260.668C104.727 260.668 113.266 259.3 118.923 257.922C122.857 256.834 126.585 255.115 129.96 252.832L118.528 223.271L116.052 208.025C116.052 208.025 103.244 209.201 95.548 209.594C87.8523 209.986 77.6164 208.025 77.6164 208.025L74.9266 216.613Z" fill="#8BAA36" stroke="#22252A" stroke-width="1.04742" stroke-linecap="round" stroke-linejoin="round"/>
<path d="M83.0582 156.368C83.0582 156.368 101.203 162.655 106.807 168.763C109.902 172.156 113.371 195.376 114.62 201.048C115.869 206.721 118.046 218.013 118.046 218.013C118.046 218.013 106.978 222.975 98.4175 223.155C89.8573 223.336 73.4307 219.434 73.4307 219.434C73.4307 219.434 75.3839 194.273 75.3839 182.578C75.3839 170.883 75.5654 163.249 77.5186 159.528C77.5293 159.559 80.7421 156.007 83.0582 156.368Z" fill="#22252A" stroke="#22252A" stroke-width="1.04742" stroke-linecap="round" stroke-linejoin="round"/>
<path d="M78.2721 221.256C78.2721 221.256 79.2541 237.701 78.2721 243.777C77.5826 247.696 76.3917 251.512 74.7285 255.132" stroke="#22252A" stroke-width="1.04742" stroke-linecap="round" stroke-linejoin="round"/>
<path d="M78.6826 229.092C80.1646 228.586 81.4889 227.707 82.5255 226.539C83.5622 225.372 84.2756 223.957 84.5958 222.433" stroke="#22252A" stroke-width="1.04742" stroke-linecap="round" stroke-linejoin="round"/>
<path d="M71.1797 250.828C71.1797 250.828 81.0421 259.246 96.412 256.129" stroke="#22252A" stroke-width="1.04742" stroke-linecap="round" stroke-linejoin="round"/>
<path d="M104.296 255.714C104.296 255.714 120.456 253.954 127.554 249.257" stroke="#22252A" stroke-width="1.04742" stroke-linecap="round" stroke-linejoin="round"/>
<path d="M176.584 148.755C176.584 148.755 175.026 149.9 169.593 153.844C164.16 157.789 168.44 163.747 168.44 163.747C168.44 163.747 164.555 164.352 159.367 169.77C154.18 175.188 161.684 184.487 168.696 185.939C175.709 187.392 183.906 178.772 186.361 170.777C188.816 162.782 185.571 150.727 183.938 148.235C182.305 145.744 176.584 148.755 176.584 148.755Z" fill="#22252A" stroke="#22252A" stroke-width="1.04742" stroke-linecap="round" stroke-linejoin="round"/>
<path d="M197.155 147.694C197.155 147.694 199.855 143.549 197.411 137.537C194.967 131.525 187.666 128.779 180.557 133.137C178.188 134.537 176.35 136.675 175.33 139.219C174.309 141.763 174.162 144.571 174.911 147.207C175.605 149.984 179.106 154.257 179.842 154.321C180.579 154.385 186.972 156.696 191.338 154.671C195.703 152.646 197.155 147.694 197.155 147.694Z" fill="#22252A" stroke="#22252A" stroke-width="1.04742" stroke-linecap="round" stroke-linejoin="round"/>
<path d="M165.754 287.651C165.754 287.651 170.824 295.486 179.63 296.822C188.435 298.158 180.515 290.312 179.032 289.124C177.548 287.937 166.949 285.371 165.754 287.651Z" fill="#737373" stroke="#22252A" stroke-width="1.04742" stroke-linecap="round" stroke-linejoin="round"/>
<path d="M212.662 289.665C212.662 289.665 222.342 292.029 221.595 294.107C220.848 296.186 212.96 296.027 208.349 294.839C203.738 293.651 199.405 291.881 200.003 289.962C200.6 288.043 212.662 289.665 212.662 289.665Z" fill="#737373" stroke="#22252A" stroke-width="1.04742" stroke-linecap="round" stroke-linejoin="round"/>
<path d="M185.138 163.281C185.138 163.281 172.18 165.168 169.811 169.716C167.441 174.265 170.782 199.044 170.782 199.044C170.782 199.044 165.253 211.163 165.178 218.967C165.104 226.77 168.605 240.501 168.327 243.926C168.049 247.35 164.506 286.337 164.506 287.397C164.506 288.458 171.977 290.833 182.747 292.105C193.517 293.377 214.117 289.571 214.117 289.571C214.117 289.571 213.711 266.563 214.789 252.843C215.867 239.123 214.33 226.792 211.587 221.67C208.844 216.549 196.068 198.111 196.068 198.111C196.068 198.111 202.258 186.957 202.643 182.079C203.027 177.202 201.031 174.657 196.356 169.048C194.966 167.394 193.258 166.031 191.332 165.041C189.406 164.051 187.3 163.452 185.138 163.281Z" fill="#8BAA36" stroke="#22252A" stroke-width="1.04742" stroke-linecap="round" stroke-linejoin="round"/>
<path d="M196.088 198.121C196.088 198.121 202.279 186.967 202.663 182.089C203.047 177.212 201.052 174.667 196.376 169.058C196.152 168.783 195.918 168.539 195.683 168.284L195.512 168.443C190.709 176.237 174.827 189.554 170.098 193.434C170.461 196.753 170.771 199.043 170.771 199.043C170.771 199.043 165.242 211.162 165.167 218.966C165.256 222.522 165.612 226.066 166.234 229.569C177.452 223.207 192.459 211.3 200.582 204.663C198.042 200.931 196.088 198.121 196.088 198.121Z" fill="#737373" stroke="#22252A" stroke-width="1.04742" stroke-linecap="round" stroke-linejoin="round"/>
<path d="M182.747 154.183C183.105 157.093 183.301 160.02 183.334 162.951C183.163 165.125 183.868 170.087 187.604 171.646C191.339 173.204 193.687 171.031 193.677 168.847C193.541 167.043 193.183 165.262 192.609 163.545L192.716 157.555C192.716 157.555 186.269 153.547 182.747 154.183Z" fill="#FAFAFA" stroke="#22252A" stroke-width="1.04742" stroke-linecap="round" stroke-linejoin="round"/>
<path d="M179.395 150.292C179.395 150.292 176.652 147.896 176.566 151.352C176.481 154.809 179.683 155.954 180.387 156.187C180.982 156.267 181.585 156.12 182.074 155.774C182.074 155.774 187.048 160.015 191.04 160.291C195.031 160.566 196.654 158.732 197.593 151.533C198.532 144.333 191.05 137.028 191.05 137.028C191.05 137.028 184.646 148.755 179.395 150.292Z" fill="#FAFAFA" stroke="#22252A" stroke-width="1.04742" stroke-linecap="round" stroke-linejoin="round"/>
<path d="M118.353 217.863C118.317 216.635 118.519 215.411 118.951 214.258C119.612 212.817 123.22 211.989 124.021 211.714C124.821 211.438 125.227 211.714 124.992 212.467C124.805 212.871 124.538 213.234 124.206 213.533C123.873 213.832 123.484 214.061 123.06 214.205C122.508 214.337 122.011 214.637 121.64 215.064C121.438 215.404 121.566 217.577 120.573 218.5C119.58 219.422 118.022 219.168 118.353 217.863Z" fill="#FAFAFA" stroke="#22252A" stroke-width="1.04742" stroke-linecap="round" stroke-linejoin="round"/>
<path d="M200.147 185.981C200.147 185.981 187.338 184.316 181.692 193.201C176.046 202.086 165.49 233.174 145.925 238.179C126.36 243.183 120.767 203.189 109.027 204.302C97.8406 205.363 90.0276 204.302 83.3139 216.517C79.7276 223.059 61.796 294.49 53.3212 295.222C26.3277 297.565 8.95117 296.038 8.95117 296.038" stroke="#22252A" stroke-width="3.14226" stroke-linecap="round" stroke-linejoin="round"/>
<path d="M83.895 156.877C83.895 156.877 80.9384 155.7 76.9892 158.043C73.04 160.386 62.4091 186.045 63.199 188.791C63.9888 191.537 75.2174 196.627 81.5255 198.387C87.8336 200.147 99.2649 202.31 99.2649 202.31C99.2649 202.31 102.809 207.791 103.993 207.982C105.716 207.959 107.433 207.764 109.117 207.399C109.117 207.399 111.251 209.159 112.073 207.198C112.895 205.236 111.283 202.702 109.512 200.741C107.74 198.779 100.247 197.804 100.247 197.804L79.9351 183.893L88.474 168.232" fill="#22252A"/>
<path d="M83.895 156.877C83.895 156.877 80.9384 155.7 76.9892 158.043C73.04 160.386 62.4091 186.045 63.199 188.791C63.9888 191.537 75.2174 196.627 81.5255 198.387C87.8336 200.147 99.2649 202.31 99.2649 202.31C99.2649 202.31 102.809 207.791 103.993 207.982C105.716 207.959 107.433 207.764 109.117 207.399C109.117 207.399 111.251 209.159 112.073 207.198C112.895 205.236 111.283 202.702 109.512 200.741C107.74 198.779 100.247 197.804 100.247 197.804L79.9351 183.893L88.474 168.232" stroke="#22252A" stroke-width="1.04742" stroke-linecap="round" stroke-linejoin="round"/>
<path d="M103.993 207.972C105.716 207.948 107.432 207.753 109.116 207.388C109.116 207.388 111.251 209.149 112.073 207.187C112.895 205.225 111.283 202.691 109.511 200.73C107.739 198.768 100.246 197.793 100.246 197.793L79.9347 183.893L82.966 178.284C75.3771 173.587 70.3391 173.936 67.6174 174.88C64.8956 181.369 62.8249 187.519 63.1878 188.78C63.9777 191.527 75.2063 196.616 81.5144 198.376C87.8224 200.136 99.2538 202.299 99.2538 202.299C99.2538 202.299 102.808 207.781 103.993 207.972Z" fill="#FAFAFA" stroke="#22252A" stroke-width="1.04742" stroke-linecap="round" stroke-linejoin="round"/>
<path d="M230.939 186.415C230.074 177.159 225.602 169.557 220.265 166.535L220.095 164.648L206.155 165.931C198.31 166.652 192.898 177.35 194.062 189.819C195.225 202.288 202.526 211.799 210.371 211.024L224.311 209.742L224.129 207.854C228.825 203.952 231.803 195.672 230.939 186.415Z" fill="#22252A" stroke="#22252A" stroke-width="1.04742" stroke-linecap="round" stroke-linejoin="round"/>
<path d="M237.254 185.865C236.347 176.142 231.917 168.137 226.271 164.956L226.079 162.973L220.112 163.525C211.872 164.288 206.183 175.517 207.4 188.622C208.617 201.727 216.302 211.725 224.542 210.962L230.509 210.41L230.327 208.428C235.258 204.25 238.161 195.556 237.254 185.865Z" fill="#FAFAFA" stroke="#22252A" stroke-width="1.04742" stroke-linecap="round" stroke-linejoin="round"/>
<path d="M243.23 185.28C244.458 198.386 238.769 209.614 230.518 210.377C222.267 211.141 214.593 201.132 213.344 188.037C212.095 174.943 217.806 163.651 226.046 162.94C234.286 162.23 241.992 172.186 243.23 185.28Z" fill="#FAFAFA" stroke="#22252A" stroke-width="1.04742" stroke-linecap="round" stroke-linejoin="round"/>
<path d="M249.636 177.626L226.485 179.747C226.16 179.777 225.833 179.744 225.521 179.648C225.21 179.553 224.92 179.397 224.669 179.191C224.418 178.984 224.211 178.73 224.059 178.443C223.907 178.156 223.814 177.843 223.785 177.52C223.754 177.198 223.787 176.872 223.883 176.563C223.979 176.253 224.136 175.965 224.344 175.716C224.553 175.467 224.808 175.261 225.097 175.11C225.386 174.959 225.701 174.867 226.026 174.837L249.177 172.717C249.502 172.686 249.829 172.72 250.141 172.815C250.452 172.91 250.742 173.066 250.993 173.273C251.244 173.48 251.451 173.734 251.603 174.021C251.755 174.307 251.848 174.621 251.877 174.943C251.908 175.266 251.875 175.591 251.779 175.901C251.683 176.21 251.526 176.498 251.318 176.747C251.109 176.997 250.854 177.202 250.565 177.353C250.276 177.504 249.961 177.597 249.636 177.626Z" fill="#737373" stroke="#22252A" stroke-width="1.04742" stroke-linecap="round" stroke-linejoin="round"/>
<path d="M251.346 195.852L228.195 197.972C227.87 198.003 227.543 197.97 227.231 197.874C226.92 197.779 226.63 197.623 226.379 197.416C226.128 197.209 225.921 196.955 225.769 196.669C225.617 196.382 225.524 196.068 225.495 195.746C225.464 195.423 225.497 195.098 225.593 194.788C225.689 194.479 225.846 194.191 226.054 193.942C226.263 193.693 226.518 193.487 226.807 193.336C227.095 193.185 227.411 193.092 227.736 193.063L250.887 190.943C251.541 190.886 252.192 191.089 252.697 191.505C253.203 191.922 253.522 192.52 253.587 193.169C253.618 193.492 253.585 193.817 253.489 194.127C253.392 194.436 253.236 194.724 253.028 194.973C252.819 195.222 252.564 195.428 252.275 195.579C251.986 195.73 251.671 195.823 251.346 195.852Z" fill="#737373" stroke="#22252A" stroke-width="1.04742" stroke-linecap="round" stroke-linejoin="round"/>
<path d="M177.135 165.009C177.135 165.009 171.563 166.069 168.927 169.25C166.29 172.431 160.879 196.976 162.128 199.797C163.376 202.617 183.389 206.158 189.569 206.667C194.539 206.862 199.516 206.643 204.448 206.01C204.448 206.01 209.785 205.872 211.247 205.628C212.71 205.384 215.399 203.953 215.442 203.412C215.485 202.871 215.218 201.578 213.222 201.419C211.226 201.26 206.946 199.839 206.402 199.797C207.684 199.461 208.985 199.199 210.297 199.012C210.297 199.012 210.575 197.952 208.376 197.952C206.177 197.952 204.182 197.803 203.349 199.012C202.754 199.954 202.246 200.947 201.833 201.981C201.833 201.981 189.505 202.84 182.813 199.595C176.121 196.351 174.007 195.269 174.007 195.269L178.81 176.184" fill="#8BAA36"/>
<path d="M177.135 165.009C177.135 165.009 171.563 166.069 168.927 169.25C166.29 172.431 160.879 196.976 162.128 199.797C163.376 202.617 183.389 206.158 189.569 206.667C194.539 206.862 199.516 206.643 204.448 206.01C204.448 206.01 209.785 205.872 211.247 205.628C212.71 205.384 215.399 203.953 215.442 203.412C215.485 202.871 215.218 201.578 213.222 201.419C211.226 201.26 206.946 199.839 206.402 199.797C207.684 199.461 208.985 199.199 210.297 199.012C210.297 199.012 210.575 197.952 208.376 197.952C206.177 197.952 204.182 197.803 203.349 199.012C202.754 199.954 202.246 200.947 201.833 201.981C201.833 201.981 189.505 202.84 182.813 199.595C176.121 196.351 174.007 195.269 174.007 195.269L178.81 176.184" stroke="#22252A" stroke-width="1.04742" stroke-linecap="round" stroke-linejoin="round"/>
<path d="M211.219 205.66C212.703 205.416 215.371 203.985 215.414 203.444C215.457 202.903 215.19 201.61 213.194 201.451C211.198 201.291 206.918 199.871 206.374 199.828C207.656 199.493 208.957 199.231 210.269 199.044C210.269 199.044 210.547 197.983 208.348 197.983C206.149 197.983 204.153 197.835 203.321 199.044C202.726 199.985 202.218 200.979 201.805 202.012C201.805 202.012 189.477 202.871 182.785 199.627C176.093 196.382 173.979 195.301 173.979 195.301L176.904 183.638C173.097 182.081 169.079 181.092 164.981 180.701C162.986 188.695 161.352 198.111 162.1 199.786C163.338 202.606 183.361 206.148 189.541 206.656C194.511 206.852 199.488 206.632 204.42 205.999C204.42 205.999 209.768 205.904 211.219 205.66Z" fill="#FAFAFA" stroke="#22252A" stroke-width="1.04742" stroke-linecap="round" stroke-linejoin="round"/>
<path d="M121.052 215.806C121.052 215.806 116.932 218.87 117.562 220.896C118.191 222.921 121.628 218.775 122.482 217.556C123.336 216.336 122.664 214.492 121.052 215.806Z" fill="#FAFAFA" stroke="#22252A" stroke-width="1.04742" stroke-linecap="round" stroke-linejoin="round"/>
<path d="M121.873 218.552C121.873 218.552 117.764 221.616 118.383 223.642C119.002 225.667 122.46 221.521 123.303 220.302C124.147 219.082 123.485 217.216 121.873 218.552Z" fill="#FAFAFA" stroke="#22252A" stroke-width="1.04742" stroke-linecap="round" stroke-linejoin="round"/>
<path d="M123.825 220.333C123.825 220.333 119.715 223.398 120.345 225.423C120.975 227.448 124.412 223.302 125.265 222.083C126.119 220.864 125.447 218.997 123.825 220.333Z" fill="#FAFAFA" stroke="#22252A" stroke-width="1.04742" stroke-linecap="round" stroke-linejoin="round"/>
<path d="M125.43 221.776C125.43 221.776 121.875 224.045 122.473 225.72C123.071 227.395 126.006 224.225 126.742 223.249C127.479 222.274 126.881 220.705 125.43 221.776Z" fill="#FAFAFA" stroke="#22252A" stroke-width="1.04742" stroke-linecap="round" stroke-linejoin="round"/>
</g>
<defs>
<filter id="filter0_d_376_1965" x="0" y="85.1154" width="507.572" height="226.27" filterUnits="userSpaceOnUse" color-interpolation-filters="sRGB">
<feFlood flood-opacity="0" result="BackgroundImageFix"/>
<feColorMatrix in="SourceAlpha" type="matrix" values="0 0 0 0 0 0 0 0 0 0 0 0 0 0 0 0 0 0 127 0" result="hardAlpha"/>
<feOffset dy="4"/>
<feGaussianBlur stdDeviation="2"/>
<feComposite in2="hardAlpha" operator="out"/>
<feColorMatrix type="matrix" values="0 0 0 0 0 0 0 0 0 0 0 0 0 0 0 0 0 0 0.25 0"/>
<feBlend mode="normal" in2="BackgroundImageFix" result="effect1_dropShadow_376_1965"/>
<feBlend mode="normal" in="SourceGraphic" in2="effect1_dropShadow_376_1965" result="shape"/>
</filter>
</defs>
</svg>
