<svg width="103" height="103" viewBox="0 0 103 103" fill="none" xmlns="http://www.w3.org/2000/svg">
<circle cx="51.5" cy="51.5" r="51.5" fill="#D9D9D9"/>
<path d="M67.1668 69.125V65.2083C67.1668 63.1308 66.3415 61.1384 64.8725 59.6693C63.4035 58.2003 61.411 57.375 59.3335 57.375H43.6668C41.5893 57.375 39.5969 58.2003 38.1278 59.6693C36.6588 61.1384 35.8335 63.1308 35.8335 65.2083V69.125" stroke="#C4C4C4" stroke-width="4" stroke-linecap="round" stroke-linejoin="round"/>
<path d="M51.4998 49.5417C55.8261 49.5417 59.3332 46.0346 59.3332 41.7083C59.3332 37.3821 55.8261 33.875 51.4998 33.875C47.1736 33.875 43.6665 37.3821 43.6665 41.7083C43.6665 46.0346 47.1736 49.5417 51.4998 49.5417Z" stroke="#C4C4C4" stroke-width="4" stroke-linecap="round" stroke-linejoin="round"/>
</svg>
